<?xml version="1.0" encoding="UTF-8" standalone="no"?>
<!-- Created with Inkscape (http://www.inkscape.org/) -->

<svg
   version="1.1"
   id="svg18"
   width="155"
   height="155"
   viewBox="0 0 155 155"
   xml:space="preserve"
   sodipodi:docname="dark_logo.svg"
   inkscape:version="1.2.1 (9c6d41e410, 2022-07-14, custom)"
   xmlns:inkscape="http://www.inkscape.org/namespaces/inkscape"
   xmlns:sodipodi="http://sodipodi.sourceforge.net/DTD/sodipodi-0.dtd"
   xmlns="http://www.w3.org/2000/svg"
   xmlns:svg="http://www.w3.org/2000/svg"><sodipodi:namedview
     id="namedview18024"
     pagecolor="#ffffff"
     bordercolor="#000000"
     borderopacity="0.25"
     inkscape:showpageshadow="2"
     inkscape:pageopacity="0.0"
     inkscape:pagecheckerboard="0"
     inkscape:deskcolor="#d1d1d1"
     showgrid="false"
     inkscape:zoom="1.1910279"
     inkscape:cx="324.9294"
     inkscape:cy="43.659765"
     inkscape:window-width="1680"
     inkscape:window-height="1021"
     inkscape:window-x="1366"
     inkscape:window-y="0"
     inkscape:window-maximized="1"
     inkscape:current-layer="g24" /><defs
     id="defs22"><clipPath
       clipPathUnits="userSpaceOnUse"
       id="clipPath158"><path
         d="M 0,0 H 841.89 V 595.276 H 0 Z"
         id="path156" /></clipPath><clipPath
       clipPathUnits="userSpaceOnUse"
       id="clipPath230"><path
         d="M 0,0 H 841.89 V 595.276 H 0 Z"
         id="path228" /></clipPath><clipPath
       clipPathUnits="userSpaceOnUse"
       id="clipPath246"><path
         d="M 270.105,357.908 H 372.11 v 101.5 H 270.105 Z"
         id="path244" /></clipPath></defs><g
     id="g24"
     transform="matrix(1.3333333,0,0,-1.3333333,-173.66196,498.14795)"><g
       transform="matrix(0.00837644,0,0,0.00990483,118.42111,252.47365)"
       fill="#000000"
       stroke="none"
       id="g727"><path
         d="m 5156.9376,12146.376 c -223,-50 -360,-173 -409,-366 -24,-96 -22,-293 4,-395 22,-86 75,-183 139,-256 l 41,-46 v -1964 -1963 l -35,-58 c -19,-32 -35,-62 -35,-68 0,-5 -4,-9 -9,-9 -5,0 -11,-8 -15,-17 -7,-22 -40,-80 -160,-283 -50,-86 -102,-177 -116,-203 -13,-26 -28,-47 -32,-47 -5,0 -8,-4 -8,-10 0,-9 -129,-242 -147,-266 -16,-20 -33,-49 -39,-64 -3,-8 -9,-22 -14,-30 -5,-8 -30,-51 -55,-95 -25,-44 -54,-93 -65,-110 -10,-16 -28,-47 -39,-67 -37,-67 -46,-83 -52,-88 -3,-3 -11,-19 -18,-36 -7,-18 -20,-40 -29,-51 -9,-10 -29,-41 -44,-68 -80,-148 -101,-184 -117,-201 -9,-11 -20,-26 -25,-34 -18,-36 -134,-240 -156,-275 -11,-16 -23,-37 -27,-45 -3,-8 -17,-32 -30,-52 -13,-21 -37,-64 -54,-95 -17,-32 -34,-60 -38,-63 -3,-3 -14,-21 -25,-40 -63,-120 -159,-286 -167,-288 -5,-2 -9,-8 -9,-13 0,-6 -25,-54 -57,-107 -31,-53 -63,-110 -72,-125 -9,-16 -21,-36 -26,-45 -6,-9 -30,-53 -54,-97 -40,-71 -79,-138 -118,-200 -7,-11 -25,-42 -39,-70 -15,-27 -61,-109 -104,-180 -42,-72 -87,-150 -100,-175 -12,-25 -26,-47 -30,-50 -3,-3 -10,-12 -14,-20 -8,-16 -15,-29 -89,-160 -58,-104 -70,-124 -78,-130 -3,-3 -12,-17 -20,-32 -58,-109 -82,-153 -104,-188 -14,-22 -25,-44 -25,-50 0,-5 -3,-10 -8,-10 -4,0 -17,-19 -28,-43 -12,-23 -34,-68 -50,-99 -16,-32 -32,-58 -36,-58 -5,0 -8,-5 -8,-11 0,-6 -20,-43 -43,-82 -24,-40 -63,-108 -86,-152 -24,-44 -47,-81 -52,-83 -5,-2 -9,-8 -9,-12 0,-5 -29,-58 -64,-118 -35,-60 -67,-119 -71,-131 -3,-11 -10,-21 -15,-21 -4,0 -10,-8 -14,-18 -3,-9 -15,-30 -26,-47 -11,-16 -24,-39 -29,-51 -5,-11 -30,-55 -55,-98 -25,-43 -46,-82 -46,-87 0,-5 -4,-9 -9,-9 -5,0 -13,-10 -17,-22 -4,-13 -18,-40 -31,-60 -13,-21 -37,-64 -54,-95 -17,-32 -34,-60 -38,-63 -3,-3 -15,-23 -26,-45 -11,-22 -25,-47 -31,-55 -11,-15 -47,-77 -88,-155 -39,-73 -48,-116 -43,-205 5,-95.99997 14,-138.99997 34,-157.99997 7,-7 13,-19 13,-25 0,-11 22,-41 62,-84 38,-41 57,-53 113,-80 l 60,-28 h 4705 4705.0004 l 60,28 c 61,28 175,134 175,162 0,8 6,20 13,27 43,43 48,271.99997 7,332.99997 -4,6 -26,46 -50,90 -23,44 -47,87 -54,95 -6,8 -20,33 -31,55 -11,22 -23,42 -26,45 -4,3 -21,31 -38,63 -17,31 -41,74 -54,95 -13,20 -27,47 -31,60 -4,12 -12,22 -17,22 -5,0 -9,4 -9,9 0,5 -21,44 -46,87 -25,43 -50,87 -55,98 -5,12 -18,35 -29,51 -11,17 -23,38 -26,48 -4,9 -10,17 -14,17 -5,0 -12,10 -15,21 -4,12 -36,71 -71,131 -35,60 -64,113 -64,118 0,4 -4,10 -9,12 -5,2 -28,39 -52,83 -23,44 -62,112 -86,152 -23,39 -43,76 -43,82 0,6 -3,11 -8,11 -4,0 -22,28 -40,63 -18,34 -42,76 -53,92 -10,17 -22,38 -25,47 -4,10 -10,18 -15,18 -5,0 -9,4 -9,9 0,5 -27,57 -60,115 -33,58 -60,110 -60,116 0,5 -4,10 -10,10 -5,0 -10,5 -10,12 0,6 -6,19 -14,27 -12,14 -38,60 -102,181 -11,19 -21,37 -24,40 -11,10 -69,107 -110,185 -23,44 -48,87 -56.0004,96 -8,8 -14,18 -14,21 0,5 -84,156 -111,198 -5,8 -14,24 -19,35 -6,11 -19,34 -30,50 -10,17 -41,68 -67,115 -70,124 -81,143 -89,160 -4,8 -10,17 -14,20 -4,3 -20,30 -36,60 -62,113 -87,155 -100,171 -8,8 -14,19 -14,22 0,4 -10,24 -23,45 -13,20 -37,62 -54,92 -62,114 -86,155 -93,165 -4,6 -33,55 -64,110 -31,55 -61,107 -67,115 -5,8 -12,23 -15,33 -4,9 -9,17 -13,17 -4,0 -15,17 -26,38 -17,34 -173,307 -223,392 -11,19 -31,55 -44,80 -13,25 -31,53 -40,64 -9,10 -22,32 -29,50 -7,17 -15,33 -18,36 -6,5 -15,21 -52,88 -11,20 -29,51 -39,67 -18,28 -101,171 -119,205 -4,8 -13,24 -19,35 -7,11 -15,27 -19,35 -4,8 -15,24 -25,34 -10,11 -18,24 -18,29 0,5 -27,56 -60,113 -33,57 -60,108 -60,114 0,5 -3,10 -7,10 -8,0 -26,28 -72,115 -45,82 -83,149 -94,163 -16,20 -147,254 -147,263 0,4 -3,9 -7,11 -5,2 -18,22 -30,44 l -23,42 v 1994 1995 l 25,29 c 43,49 92,136 115,204 30,88 39,340 17,447 -41,191 -162,321 -342,368 -52,13 -219,15 -1330,14 -1023,0 -1282,-3 -1330,-14 z m 2586,-414 c 16,-20 19,-40 19,-137 0,-78 -5,-126 -15,-150 -19,-46 -74,-99 -119,-114 l -36,-12 v -2159 -2160 l 42,-77 c 23,-42 44,-79 48,-82 3,-3 17,-26 30,-52 14,-25 51,-90 83,-144 31,-53 57,-100 57,-104 0,-4 7,-13 15,-20 8,-7 15,-21 15,-31 0,-11 3,-19 8,-19 7,0 21,-23 72,-115 15,-27 37,-66 49,-85 11,-19 24,-42 28,-50 4,-8 28,-49 53,-90 25,-41 56,-95 69,-120 34,-63 43,-80 73,-125 14,-23 38,-63 53,-90 14,-28 35,-63 46,-80 10,-16 22,-36 26,-44 3,-8 34,-62 68,-121 34,-59 65,-113 68,-121 4,-8 18,-32 32,-54 14,-22 28,-47 32,-55 4,-8 33,-59 65,-113 32,-54 58,-100 58,-103 0,-2 15,-27 33,-56 19,-29 44,-74 57,-100 13,-27 27,-48 32,-48 4,0 8,-4 8,-9 0,-7 159,-292 177,-317 9,-11 23,-35 61,-103 13,-25 37,-65 52,-90 14,-26 29,-53 33,-61 4,-8 16,-28 27,-45 11,-16 23,-37 27,-45 3,-8 14,-26 23,-40 10,-14 33,-55 53,-92 50,-92 61,-112 68,-118 5,-5 43,-72 102,-180 17,-30 34,-56 39,-58 4,-2 8,-8 8,-12 0,-5 28,-57 63,-117 35,-59 66,-115 70,-123 4,-8 16,-28 27,-45 10,-16 25,-41 33,-55 46,-84 83,-150 104,-182 12,-21 23,-42 23,-47 0,-5 4,-11 8,-13 5,-1 30,-43 57,-93 26,-49 51,-92 54,-95 3,-3 13,-19 22,-35 9,-17 42,-74 73.0004,-127 31,-53 56,-102 56,-107 0,-6 4,-11 9,-11 5,0 12,-11 15,-25 4,-14 11,-25 16,-25 6,0 10,-7 10,-15 0,-8 5,-15 10,-15 6,0 10,-5 10,-11 0,-9 56,-109 145,-260 14,-24 36,-63 75,-134 18,-33 36,-62 39,-65 3,-3 15,-23 26,-45 11,-22 22,-42 26,-45 5,-5 27,-43 102,-180 16,-30 33,-56 38,-58 5,-2 9,-8 9,-13 0,-4 21,-43 46,-86 25,-43 50,-87 55,-98 5,-11 18,-33 29,-50 11,-16 24,-39 30,-50 5,-11 14,-27 20,-35 30,-45 140,-243 140,-251 0,-5 4,-9 9,-9 5,0 14,-14 21,-30 7,-17 28,-55 46,-85 l 33,-55 h -4579.0004 -4579 l 33,55 c 18,30 39,68 46,85 7,16 16,30 21,30 5,0 9,4 9,9 0,8 110,206 140,251 6,8 15,24 20,35 6,11 19,34 30,50 11,17 24,39 29,50 5,11 30,55 55,98 25,43 46,82 46,86 0,5 4,11 9,13 5,2 22,28 38,58 75,137 97,175 102,180 4,3 15,23 26,45 11,22 23,42 26,45 3,3 21,32 39,65 39,71 61,110 75,134 89,151 145,251 145,260 0,6 5,11 10,11 6,0 10,7 10,15 0,8 4,15 10,15 5,0 12,11 16,25 3,14 10,25 15,25 5,0 9,5 9,11 0,5 25,54 56,107 31,53 64,110 73,127 9,16 19,32 22,35 3,3 28,46 54,95 27,50 52,92 57,93 4,2 8,8 8,13 0,5 11,26 23,47 21,32 58,98 104,182 8,14 23,39 33,55 11,17 23,37 27,45 4,8 35,64 70,123 35,60 63,112 63,117 0,4 4,10 8,12 5,1 22,28 39,58 59,108 97,175 102,180 7,6 18,26 68,118 20,37 43,78 53,92 9,14 20,32 23,40 4,8 16,29 27,45 11,17 23,37 27,45 4,8 19,35 33,61 15,25 39,65 52,90 38,68 52,92 61,103 18,25 177,310 177,317 0,5 4,9 8,9 5,0 19,21 32,48 13,26 38,71 57,100 18,29 33,54 33,56 0,3 26,49 58,103 32,54 61,105 65,113 4,8 18,33 32,55 14,22 28,46 32,54 3,8 34,62 68,121 34,59 65,113 68,121 4,8 16,28 26,44 11,17 32,52 46,80 15,27 39,67 53,90 30,45 39,62 73,125 13,25 44,79 69,120 25,41 49,82 53,90 4,8 17,31 28,50 12,19 34,58 49,85 51,92 65,115 73,115 4,0 7,8 7,19 0,10 7,24 15,31 8,7 15,16 15,20 0,5 27,53 59,107 33,54 70,118 83,143 13,25 26,47 29,50 3,3 8,12 12,22 3,9 28,53 56,98 l 51,82 v 2138 2138 l -30,7 c -46,10 -125,78 -149,127 -17,36 -21,63 -21,142 0,89 2,99 24,121 13,13 41,27 62,30 22,4 44,8 49,10 6,2 558,3 1228,2 l 1219,-2 z"
         id="path711"
         style="fill:#302f45;fill-opacity:1" /><path
         d="m 6722,8767 c -48,-15 -119,-82 -144,-136 -12,-25 -24,-74 -26,-107 -4,-53 0,-70 27,-127 36,-75 82,-119 150,-142 128,-43 269,12 326,129 22,46 27,69 27,130 0,63 -5,83 -28,127 -34,61 -94,113 -149,128 -49,13 -139,13 -183,-2 z"
         id="path713"
         style="fill:#a44358;fill-opacity:1" /><path
         d="m 7060,7880 c -102,-47 -160,-139 -160,-251 0,-55 6,-77 33,-130 50,-100 136,-146 255,-137 143,10 242,120 242,268 -1,106 -54,195 -145,242 -60,31 -167,35 -225,8 z"
         id="path715"
         style="fill:#a44358;fill-opacity:1" /><path
         d="m 6095,7364 c -84,-34 -153,-89 -202,-162 -50,-74 -63,-112 -70,-208 -14,-186 106,-355 299,-420 122,-42 244,-29 367,36 77,41 134,103 174,188 30,63 32,74 32,177 0,101 -2,115 -29,170 -53,106 -140,184 -252,224 -88,31 -236,29 -319,-5 z"
         id="path717"
         style="fill:#a44358;fill-opacity:1" /><path
         d="m 5375,6658 c -57,-21 -109,-63 -140,-112 -26,-43 -30,-61 -33,-132 -3,-65 0,-91 15,-125 48,-107 124,-154 248,-154 91,1 137,19 191,77 56,59 69,94 69,188 0,94 -13,129 -69,188 -48,52 -101,75 -181,78 -38,2 -83,-1 -100,-8 z"
         id="path719"
         style="fill:#a44358;fill-opacity:1" /><path
         d="m 6863,6566 c -105,-39 -193,-118 -240,-214 -26,-53 -28,-66 -28,-182 0,-118 2,-128 29,-179 36,-69 127,-160 189,-190 251,-121 538,-14 628,233 14,36 19,78 19,144 0,82 -4,100 -30,160 -49,108 -144,194 -258,233 -81,28 -226,26 -309,-5 z"
         id="path721"
         style="fill:#a44358;fill-opacity:1" /><path
         d="m 5955,6069 c -164,-81 -204,-293 -82,-427 61,-66 101,-82 199,-82 74,0 89,4 135,30 153,88 178,309 48,429 -24,22 -60,47 -81,56 -53,22 -169,19 -219,-6 z"
         id="path723"
         style="fill:#a44358;fill-opacity:1" /><path
         d="m 4695,5304 c -26,-49 -51,-90 -56,-92 -5,-2 -9,-10 -9,-18 0,-8 -5,-20 -10,-27 -6,-7 -43,-68 -82,-137 -39,-69 -81,-143 -94,-165 -12,-22 -39,-71 -59,-109 -20,-37 -51,-91 -69,-120 -18,-28 -59,-98 -91,-156 -31,-58 -60,-107 -64,-110 -3,-3 -15,-23 -26,-45 -11,-22 -48,-88 -82,-148 -35,-59 -63,-112 -63,-118 0,-5 -4,-9 -10,-9 -5,0 -10,-5 -10,-10 0,-6 -27,-57 -60,-114 -33,-57 -60,-109 -60,-115 0,-6 -4,-11 -10,-11 -5,0 -10,-7 -10,-15 0,-8 -4,-15 -9,-15 -5,0 -15,-15 -21,-34 -6,-19 -14,-36 -18,-38 -4,-2 -25,-37 -46,-78 -21,-41 -44,-82 -51,-90 -7,-8 -27,-42 -45,-75 -78,-142 -109,-196 -138,-240 -6,-11 -15,-27 -19,-35 -7,-17 -98,-176 -114,-200 -5,-8 -12,-23 -15,-32 -4,-10 -10,-18 -15,-18 -5,0 -9,-5 -9,-10 0,-6 -27,-58 -60,-116 -33,-58 -60,-110 -60,-115 0,-5 -4,-9 -9,-9 -5,0 -11,-8 -15,-17 -3,-10 -21,-45 -41,-78 -19,-33 -50,-87 -68,-119 -17,-32 -36,-66 -42,-75 -11,-17 -66,-113 -103,-176 -12,-22 -27,-52 -33,-67 -6,-16 -14,-28 -19,-28 -4,0 -11,-8 -14,-17 -3,-10 -12,-27 -19,-38 -7,-11 -36,-63 -65,-115 -29,-52 -62,-111 -74,-130 -33,-56 -121,-213 -132,-237 -6,-13 -14,-23 -18,-23 -5,0 -8,-4 -8,-9 0,-6 -16,-37 -35,-70 -19,-32 -35,-64 -35,-70 0,-8 1116,-11 3920,-11 2443,0 3920,4 3920,9 0,6 -4,12 -8,15 -4,3 -21,31 -37,63 -16,32 -37,67 -47,77 -10,11 -18,24 -18,28 0,5 -27,56 -60,115 -33,58 -60,109 -60,114 0,5 -4,9 -8,9 -4,0 -30,42 -56,93 -27,50 -63,115 -81,142 -17,28 -53,91 -80,140 -26,50 -51,92 -54,95 -4,3 -18,26 -31,51 -14,26 -47,84 -73,130 -26,46 -52,92 -57,102 -6,9 -15,25 -20,35 -6,9 -13,24 -17,32 -4,8 -10,17 -13,20 -4,3 -19,28 -33,55 -14,28 -46,85 -71,128 -25,43 -46,80 -46,83 0,3 -5,10 -10,17 -6,7 -37,59 -69,117 -83,150 -102,184 -111,195 -4,6 -22,37 -40,70 -52,95 -70,128 -90,160 -41,65 -100,175 -100,185 0,5 -4,10 -9,10 -5,0 -14,12 -20,28 -12,30 -29,59 -48,80 -7,7 -13,17 -13,22 0,5 -29,59 -65,121 -36,61 -65,116 -65,120 0,5 -3,9 -8,9 -4,0 -13,13 -20,30 -8,16 -40,76 -73,132 -32,57 -59,106 -59,111 0,4 -8,17 -19,28 -10,11 -30,43 -45,72 -15,29 -40,75 -56,102 -16,28 -35,61 -43,75 -8,14 -31,54 -52,90 -20,36 -41,74 -46,85 -5,11 -18,34 -29,50 -11,17 -24,39 -30,50 -5,11 -14,27 -20,35 -13,19 -104,180 -113,200 -4,8 -17,31 -29,50 -11,19 -37,64 -57,100 -20,36 -40,73 -46,82 -9,15 -144,17 -1666,24 l -1656,7 z"
         id="path725"
         style="fill:#a44358;fill-opacity:1" /></g><g
       aria-label="LabChallenge"
       transform="matrix(0.63822198,0,0,-1.5533108,6.0532855,0)"
       id="text150-2"
       style="font-size:98.9222px;font-family:'Source Code Variable';-inkscape-font-specification:'Source Code Variable, @wght=400';font-variation-settings:'wght' 400;opacity:1;fill:#302f45;fill-opacity:1;stroke-width:0.989222"><path
         d="m 401.94102,-167.01036 h 45.37205 v -7.84461 h -36.11928 v -65.67061 h -9.25277 z"
         id="path14518"
         style="fill:#302f45;fill-opacity:1;stroke-width:1.11772" /><path
         d="m 472.47258,-165.82329 c 6.72671,0 13.65127,-3.5612 18.89414,-7.61701 h 0.29677 l 0.69246,6.42994 h 6.72671 v -29.47882 c 0,-11.96958 -6.42995,-19.78444 -19.48768,-19.78444 -8.50731,0 -16.52001,3.75905 -21.46612,6.92456 l 3.16552,5.63856 c 4.55042,-2.76982 10.58467,-5.83641 16.91569,-5.83641 9.29869,0 12.4642,5.63857 12.76097,12.16743 -24.82948,1.97845 -34.91954,7.1224 -34.91954,17.90492 0,8.70516 7.32024,13.65127 16.42108,13.65127 z m 2.17629,-6.52887 c -5.63856,0 -10.58467,-2.17629 -10.58467,-7.61701 0,-6.42994 6.33102,-10.38683 26.90684,-12.06851 v 12.56312 c -5.53965,4.55042 -10.88145,7.1224 -16.32217,7.1224 z"
         id="path14520"
         style="fill:#302f45;fill-opacity:1" /><path
         d="m 539.14619,-165.82329 c 11.37605,0 21.76288,-9.49654 21.76288,-25.91762 0,-14.83833 -7.02348,-24.53271 -19.98228,-24.53271 -5.63857,0 -11.87067,2.96767 -16.22325,7.32025 h -0.29676 l 0.39569,-9.19977 v -19.28983 h -8.11162 v 70.43261 h 6.42994 l 0.79138,-5.3418 h 0.29676 c 4.4515,4.15473 10.18899,6.52887 14.93726,6.52887 z m -1.38491,-6.82564 c -3.36336,0 -8.50731,-1.48383 -12.95881,-5.63856 v -23.93918 c 4.84718,-4.94611 9.79329,-7.12239 14.14587,-7.12239 9.59546,0 13.55234,7.12239 13.55234,17.70707 0,11.87067 -6.33102,18.99306 -14.7394,18.99306 z"
         id="path14522"
         style="fill:#302f45;fill-opacity:1" /><path
         d="m 606.22607,-165.82329 c 8.50731,0 14.93725,-3.36336 19.98228,-9.29869 l -4.64934,-5.04503 c -4.15473,4.55042 -8.70515,7.12239 -14.64048,7.12239 -12.36528,0 -20.4769,-10.18898 -20.4769,-26.51115 0,-16.22324 8.11162,-26.21438 20.4769,-26.21438 5.44072,0 9.79329,2.27521 13.15665,5.83641 l 4.64934,-5.24288 c -3.85796,-4.05581 -9.99114,-7.91377 -17.80599,-7.91377 -16.9157,0 -28.98421,12.76096 -28.98421,33.73247 0,21.07043 12.26635,33.53463 28.29175,33.53463 z"
         id="path14524"
         style="fill:#302f45;fill-opacity:1" /><path
         d="m 640.0575,-167.01036 h 8.11163 v -33.53463 c 5.53964,-5.73749 9.49653,-8.60623 15.13509,-8.60623 7.91378,0 11.07929,4.25366 11.07929,13.3545 v 28.78636 h 8.21054 v -29.77558 c 0,-12.76097 -5.3418,-19.48768 -16.61893,-19.48768 -7.51809,0 -13.15665,4.15473 -18.00384,9.39761 h -0.29677 l 0.49462,-11.27713 v -19.28983 h -8.11163 z"
         id="path14526"
         style="fill:#302f45;fill-opacity:1" /><path
         d="m 716.87592,-165.82329 c 6.72671,0 13.65126,-3.5612 18.89414,-7.61701 h 0.29677 l 0.69245,6.42994 h 6.72671 v -29.47882 c 0,-11.96958 -6.42994,-19.78444 -19.48767,-19.78444 -8.50731,0 -16.52001,3.75905 -21.46612,6.92456 l 3.16551,5.63856 c 4.55042,-2.76982 10.58468,-5.83641 16.9157,-5.83641 9.29868,0 12.46419,5.63857 12.76096,12.16743 -24.82947,1.97845 -34.91954,7.1224 -34.91954,17.90492 0,8.70516 7.32025,13.65127 16.42109,13.65127 z m 2.17629,-6.52887 c -5.63857,0 -10.58468,-2.17629 -10.58468,-7.61701 0,-6.42994 6.33102,-10.38683 26.90684,-12.06851 v 12.56312 c -5.53964,4.55042 -10.88144,7.1224 -16.32216,7.1224 z"
         id="path14528"
         style="fill:#302f45;fill-opacity:1" /><path
         d="m 785.06692,-165.82329 c 5.24288,0 8.60624,-1.28599 12.95881,-2.86875 l -2.07736,-6.13317 c -3.5612,1.58275 -6.33102,2.27521 -9.10085,2.27521 -5.73748,0 -9.3976,-2.96767 -9.3976,-9.99115 v -54.90182 h -24.63163 v 6.72671 h 16.42108 v 47.58158 c 0,11.37605 5.53965,17.31139 15.82755,17.31139 z"
         id="path14530"
         style="fill:#302f45;fill-opacity:1" /><path
         d="m 832.77044,-165.82329 c 5.24287,0 8.60623,-1.28599 12.95881,-2.86875 l -2.07737,-6.13317 c -3.5612,1.58275 -6.33102,2.27521 -9.10084,2.27521 -5.73749,0 -9.39761,-2.96767 -9.39761,-9.99115 v -54.90182 H 800.5218 v 6.72671 h 16.42109 v 47.58158 c 0,11.37605 5.53964,17.31139 15.82755,17.31139 z"
         id="path14532"
         style="fill:#302f45;fill-opacity:1" /><path
         d="m 886.93568,-165.82329 c 7.71594,0 13.84911,-2.57198 18.59738,-5.73749 l -2.96767,-5.3418 c -4.35258,2.76982 -8.903,4.55042 -14.64048,4.55042 -10.6836,0 -18.79522,-6.33102 -18.79522,-18.79522 0,-11.87066 7.71593,-18.59737 16.61893,-18.59737 8.70515,0 14.34372,5.63856 14.34372,16.91569 l 2.07736,-2.27521 h -35.71091 v 6.42995 h 40.65702 c 0.19785,-1.28599 0.39569,-3.16551 0.39569,-5.04504 0,-13.55234 -8.11162,-22.55426 -21.96073,-22.55426 -12.85988,0 -24.63163,9.49653 -24.63163,25.12624 0,16.0254 11.5739,25.32409 26.01654,25.32409 z"
         id="path14534"
         style="fill:#302f45;fill-opacity:1" /><path
         d="m 925.17445,-167.01036 h 8.11163 v -33.53463 c 5.53964,-5.73749 9.49653,-8.60623 15.13509,-8.60623 7.91378,0 11.07929,4.25366 11.07929,13.3545 v 28.78636 h 8.21054 v -29.77558 c 0,-12.76097 -5.3418,-19.48768 -16.71785,-19.48768 -7.51809,0 -13.05773,4.15473 -18.10276,9.39761 h -0.39569 l -0.59354,-8.21054 h -6.72671 z"
         id="path14536"
         style="fill:#302f45;fill-opacity:1" /><path
         d="m 1002.18,-144.85179 c 16.4211,0 26.8079,-7.81485 26.8079,-16.81677 0,-8.11162 -5.9353,-11.27713 -18.3006,-11.27713 h -10.78247 c -6.33094,0 -9.99108,-1.7806 -9.99108,-5.53965 0,-2.27521 1.38487,-4.05581 3.75904,-5.53964 2.67087,1.18707 5.63844,1.7806 8.11151,1.7806 10.3868,0 18.5974,-6.2321 18.5974,-16.52001 0,-3.85796 -1.8796,-7.32024 -4.0558,-9.59545 h 12.4642 v -6.72671 h -19.8834 c -2.0774,-0.79138 -4.3526,-1.18707 -7.1224,-1.18707 -10.28778,0 -18.99295,6.72671 -18.99295,17.21247 0,5.73748 2.6709,9.99114 5.93533,12.46419 v 0.39569 c -3.66012,2.47306 -5.73749,5.93533 -5.73749,9.00192 0,4.05581 2.37414,6.52887 4.94611,7.91378 v 0.39569 c -5.14395,2.96766 -7.91377,6.82563 -7.91377,10.6836 0,8.5073 8.21054,13.35449 22.15847,13.35449 z m -0.3957,-42.83331 c -6.03424,0 -11.07918,-4.4515 -11.07918,-11.37605 0,-6.72671 5.04494,-11.17821 11.07918,-11.17821 6.0342,0 10.9804,4.4515 10.9804,11.17821 0,6.92455 -4.9462,11.37605 -10.9804,11.37605 z m 1.0881,36.89798 c -10.28778,0 -15.72847,-3.16551 -15.72847,-8.21054 0,-2.76982 1.58275,-5.53965 6.13316,-7.91378 2.07737,0.59353 4.55034,0.79138 7.32011,0.79138 h 9.2987 c 7.3203,0 10.9804,1.18707 10.9804,5.73749 0,4.94611 -6.9246,9.59545 -18.0039,9.59545 z"
         id="path14538"
         style="fill:#302f45;fill-opacity:1" /><path
         d="m 1067.3257,-165.82329 c 7.7159,0 13.8491,-2.57198 18.5973,-5.73749 l -2.9676,-5.3418 c -4.3526,2.76982 -8.903,4.55042 -14.6405,4.55042 -10.6836,0 -18.7952,-6.33102 -18.7952,-18.79522 0,-11.87066 7.7159,-18.59737 16.6189,-18.59737 8.7051,0 14.3437,5.63856 14.3437,16.91569 l 2.0774,-2.27521 h -35.7109 v 6.42995 h 40.657 c 0.1978,-1.28599 0.3957,-3.16551 0.3957,-5.04504 0,-13.55234 -8.1116,-22.55426 -21.9608,-22.55426 -12.8598,0 -24.6316,9.49653 -24.6316,25.12624 0,16.0254 11.5739,25.32409 26.0166,25.32409 z"
         id="path14540"
         style="fill:#302f45;fill-opacity:1" /></g><g
       id="g152"
       transform="matrix(0.69386202,0,0,0.72869642,-13.394536,-2.9317858)"><g
         id="g154"
         clip-path="url(#clipPath158)"><g
           id="g160"
           transform="translate(368.1102,425.9075)"><path
             d="m 0,0 h -64 v -64 h 48 v 14 c 0,1.105 0.895,2 2,2 H 0 Z m -25.498,4 -6.973,26.022 -61.551,-16.493 16.493,-61.551 9.529,2.554 V 0 c 0,2.209 1.791,4 4,4 z M 0,-52 h -12 v -12 c 0.828,0 1.637,0.084 2.418,0.244 4.687,0.959 8.56,5.842 9.52,10.529 C 0.098,-52.446 0,-52.828 0,-52"
             style="fill:#ffffff;fill-opacity:1;fill-rule:nonzero;stroke:none"
             id="path162" /></g><g
           id="g164"
           transform="translate(356.1102,361.9075)"><path
             d="M 0,0 C 6.627,0 12,5.373 12,12 H 0 Z M -52,64 V 0 h 48 v 14 c 0,1.105 0.895,2 2,2 h 14 v 48 z"
             style="fill:#a44358;fill-opacity:0.47;fill-rule:nonzero;stroke:none"
             id="path166" /></g></g></g><g
       id="g224"
       transform="matrix(0.69386202,0,0,0.72869642,-12.397659,-2.9838143)"><g
         id="g226"
         clip-path="url(#clipPath230)"><g
           id="g232"
           transform="translate(360.1102,363.9075)"><path
             d="m 0,0 h -2 v -1.82 c 0.69,0.116 1.356,0.29 2,0.517 z M 2.628,0 H 2 V -0.382 C 2.212,-0.259 2.424,-0.135 2.628,0 M 2,2 H 0 V 0 H 2 Z M 4.926,2 H 4 V 1.074 C 4.326,1.366 4.634,1.674 4.926,2 M 0,4 H -2 V 2 H -4 V 0 h 2 V 2 H 0 Z M 4,4 H 2 V 2 H 4 Z M 6.381,4 H 6 V 3.372 C 6.135,3.576 6.259,3.788 6.381,4 M 6,6 H 4 V 4 H 6 Z M 0,8 H -2 V 6 H -4 V 4 h 2 V 6 H 0 Z M 7.82,8 H 6 V 6 H 7.303 C 7.53,6.644 7.704,7.311 7.82,8 M -2,10 H -4 V 8 h 2 z"
             style="fill:#918264;fill-opacity:1;fill-rule:nonzero;stroke:none"
             id="path234" /></g><g
           id="g236"
           transform="translate(322.1102,371.9075)"><path
             d="m 0,0 c -4.418,0 -8,3.582 -8,8 0,4.418 3.582,8 8,8 C 4.418,16 8,12.418 8,8 8,3.582 4.418,0 0,0 M 0,18 C -5.523,18 -10,13.523 -10,8 -10,2.477 -5.523,-2 0,-2 5.523,-2 10,2.477 10,8 10,13.523 5.523,18 0,18 m 22,-6 c -1.105,0 -2,0.895 -2,2 0,1.105 0.895,2 2,2 1.105,0 2,-0.895 2,-2 0,-1.105 -0.895,-2 -2,-2 m 0,6 c -2.209,0 -4,-1.791 -4,-4 0,-2.209 1.791,-4 4,-4 2.209,0 4,1.791 4,4 0,2.209 -1.791,4 -4,4 m 8,10 h -40 v -2 h 40 z m 8,6 h -48 v -2 h 48 z m 0,6 h -48 v -2 h 48 z m -18,6 h -30 v -2 h 30 z"
             style="fill:#918264;fill-opacity:1;fill-rule:nonzero;stroke:none"
             id="path238" /></g></g></g><g
       id="g240"
       transform="matrix(0.69386202,0,0,0.72869642,-42.104973,-30.085237)"
       style="fill:#302f45;fill-opacity:1"><g
         id="g242"
         clip-path="url(#clipPath246)"
         transform="translate(41.709356,37.634996)"
         style="fill:#302f45;fill-opacity:1"><g
           id="g248"
           transform="translate(356.1102,373.9075)"
           style="fill:#302f45;fill-opacity:1"><path
             d="M 0,0 V 0 H 12 C 12,-0.827 12.098,-0.447 11.939,-1.224 11.325,-7.276 6.214,-12 0,-12 Z m -52,52 v 0 H 12 V 4 H -2 C -3.105,4 -4,3.105 -4,2 v -14 h -48 z m -30.022,13.529 v 0 L -20.471,82.022 -13.498,56 H -52 c -2.209,0 -4,-1.791 -4,-4 V 6.532 l -9.529,-2.554 z m 61.608,20.476 h -0.11 C -20.848,86 -21.175,85.956 -21.502,85.869 l -61.55,-16.493 c -1.758,-0.471 -2.925,-2.048 -2.953,-3.782 v -0.128 c 0.005,-0.32 0.049,-0.645 0.136,-0.968 l 16.493,-61.55 c 0.477,-1.78 2.086,-2.954 3.845,-2.954 0.341,0 0.688,0.045 1.033,0.137 L -56,2.409 V -12 c 0,-2.209 1.791,-4 4,-4 H 0 c 8.837,0 16,7.164 16,16 v 52 c 0,2.209 -1.791,4 -4,4 H -9.375 l -7.249,27.053 c -0.472,1.76 -2.053,2.928 -3.79,2.952"
             style="fill:#302f45;fill-opacity:1;fill-rule:nonzero;stroke:none"
             id="path250" /></g></g></g></g></svg>
